<?xml version="1.0" encoding="utf-8"?>
<!-- Generator: Adobe Illustrator 16.0.0, SVG Export Plug-In . SVG Version: 6.00 Build 0)  -->
<!DOCTYPE svg PUBLIC "-//W3C//DTD SVG 1.1//EN" "http://www.w3.org/Graphics/SVG/1.1/DTD/svg11.dtd">
<svg version="1.1" id="Ebene_1" xmlns="http://www.w3.org/2000/svg" xmlns:xlink="http://www.w3.org/1999/xlink" x="0px" y="0px"
	 width="291.607px" height="113px" viewBox="0 0 291.607 113" enable-background="new 0 0 291.607 113" xml:space="preserve">
<text transform="matrix(1 0 0 1 4.882812e-04 108.1309)" fill="#596668" font-family="'HelveticaNeue'" font-size="30.1032">PACIFIC ANALYTICS</text>
<path fill-rule="evenodd" clip-rule="evenodd" fill="#596668" d="M153.838,63.611c-27.688,12.422-53.47,9.83-76.97-9.396
	c-7.416-6.067-14.682-12.319-21.927-18.589C33.97,17.479,27.2,14.964,0,14.944c20.241-9.97,41.393-14.286,62.438-3.735
	c11.539,5.786,21.731,14.585,31.786,22.927c14.16,11.755,27.593,24.419,46.694,27.681C145.204,62.548,149.53,63.02,153.838,63.611z"
	/>
<path fill-rule="evenodd" clip-rule="evenodd" fill="#00ACA6" d="M210.77,50.194c-21.338,9.575-41.209,7.577-59.322-7.239
	c-5.715-4.678-11.315-9.496-16.9-14.328c-16.164-13.987-21.381-15.926-42.344-15.941c15.6-7.684,31.901-11.012,48.123-2.878
	c8.894,4.46,16.749,11.241,24.496,17.67c10.914,9.061,21.271,18.819,35.99,21.336C204.115,49.377,207.45,49.739,210.77,50.194z"/>
<path fill-rule="evenodd" clip-rule="evenodd" fill="#35BAD3" d="M255.687,38.03c-15.582,6.99-30.092,5.531-43.32-5.287
	c-4.173-3.417-8.264-6.936-12.341-10.464c-11.803-10.213-15.613-11.63-30.922-11.642c11.391-5.61,23.297-8.041,35.142-2.101
	c6.495,3.257,12.232,8.208,17.889,12.903c7.971,6.615,15.532,13.742,26.283,15.579C250.827,37.432,253.263,37.697,255.687,38.03z"/>
<path fill-rule="evenodd" clip-rule="evenodd" fill="#78C4CD" d="M291.607,30.386c-11.966,5.367-23.109,4.25-33.267-4.06
	c-3.206-2.624-6.347-5.325-9.478-8.035c-9.064-7.844-11.991-8.931-23.747-8.94c8.748-4.308,17.891-6.173,26.987-1.614
	c4.987,2.501,9.393,6.305,13.739,9.909c6.119,5.081,11.927,10.555,20.183,11.965C287.875,29.926,289.745,30.131,291.607,30.386z"/>
</svg>
